<svg width="153" height="152" viewBox="0 0 153 152" fill="none" xmlns="http://www.w3.org/2000/svg">
<g opacity="0.06">
<path d="M138.775 43.2252C138.775 43.2252 129.994 19.7524 105.328 7.76006C105.328 7.76006 74.751 -10.141 38.0889 8.43386C38.0889 8.43386 20.0138 15.3597 6.32628 40.3551C6.32628 40.3551 -4.31527 61.9749 2.26927 72.7816C2.26927 72.7816 8.1798 83.5883 28.9639 90.0088C59.5405 99.4679 124.245 94.5699 152.119 49.3088C152.119 49.3088 125.256 59.7786 92.3141 62.1434C92.3141 62.1434 115.794 67.0414 143.5 55.3859C143.5 55.3859 128.801 70.5853 76.7731 78.6903C76.7731 78.6903 44.3364 84.7675 30.4869 70.9222C30.4869 70.9222 13.7598 55.2175 41.2969 27.6889C41.2969 27.6889 64.44 5.22683 97.7192 20.7631C97.7192 20.7631 114.446 26.6718 125.425 48.4601C125.256 48.4601 135.898 46.4322 138.769 43.2252H138.775Z" fill="white"/>
<path d="M144.353 71.5959C144.353 71.5959 146.213 83.5883 142.998 95.5741C142.998 95.5741 85.7271 141.004 25.0793 117.019C25.0793 117.019 73.2255 150.288 134.547 117.019C134.547 117.019 116.809 149.109 75.4225 151.979C75.4225 151.979 55.9929 152.821 38.7604 143.874C38.7604 143.874 1.76122 127.664 0.413208 87.9744C7.34123 92.1986 39.7779 109.251 79.9785 102.163C97.3796 98.9561 121.197 91.6933 144.34 71.5959H144.353Z" fill="white"/>
</g>
</svg>
